<svg width="20" height="20" viewBox="0 0 20 20" fill="none" xmlns="http://www.w3.org/2000/svg">
<path d="M10 10.8333C11.3807 10.8333 12.5 9.71402 12.5 8.33331C12.5 6.9526 11.3807 5.83331 10 5.83331C8.61929 5.83331 7.5 6.9526 7.5 8.33331C7.5 9.71402 8.61929 10.8333 10 10.8333Z" stroke="#002554" stroke-width="2" stroke-linecap="round" stroke-linejoin="round"/>
<path d="M10 1.66666C8.23189 1.66666 6.5362 2.36904 5.28595 3.61928C4.03571 4.86952 3.33333 6.56521 3.33333 8.33332C3.33333 9.90999 3.66833 10.9417 4.58333 12.0833L10 18.3333L15.4167 12.0833C16.3317 10.9417 16.6667 9.90999 16.6667 8.33332C16.6667 6.56521 15.9643 4.86952 14.714 3.61928C13.4638 2.36904 11.7681 1.66666 10 1.66666V1.66666Z" stroke="#002554" stroke-width="2" stroke-linecap="round" stroke-linejoin="round"/>
</svg>
