<svg width="38" height="38" viewBox="0 0 38 38" fill="none" xmlns="http://www.w3.org/2000/svg">
<rect width="38" height="38" rx="19" fill="#FF0000"/>
<path d="M29.569 13.7734C29.3209 12.8407 28.587 12.1049 27.6532 11.8527C25.9648 11.4001 19.1904 11.4001 19.1904 11.4001C19.1904 11.4001 12.4195 11.4001 10.7276 11.8527C9.79729 12.1014 9.06335 12.8372 8.81181 13.7734C8.36041 15.4661 8.36041 19.0001 8.36041 19.0001C8.36041 19.0001 8.36041 22.5341 8.81181 24.2269C9.0599 25.1596 9.79385 25.8954 10.7276 26.1476C12.4195 26.6001 19.1904 26.6001 19.1904 26.6001C19.1904 26.6001 25.9648 26.6001 27.6532 26.1476C28.5835 25.8989 29.3175 25.1631 29.569 24.2269C30.0204 22.5341 30.0204 19.0001 30.0204 19.0001C30.0204 19.0001 30.0204 15.4661 29.569 13.7734Z" fill="white"/>
<path d="M17.0265 22.2578L22.6534 19.0001L17.0265 15.7425V22.2578Z" fill="#FF0000"/>
</svg>
