<svg width="37" height="38" viewBox="0 0 37 38" fill="none" xmlns="http://www.w3.org/2000/svg">
<rect width="37" height="38" rx="18.5" fill="url(#paint0_linear_2_394)"/>
<path d="M15.4209 19.0487C15.4209 17.2983 16.8018 15.879 18.5056 15.879C20.2094 15.879 21.591 17.2983 21.591 19.0487C21.591 20.7991 20.2094 22.2185 18.5056 22.2185C16.8018 22.2185 15.4209 20.7991 15.4209 19.0487ZM13.753 19.0487C13.753 21.7453 15.8807 23.9312 18.5056 23.9312C21.1305 23.9312 23.2582 21.7453 23.2582 19.0487C23.2582 16.3521 21.1305 14.1663 18.5056 14.1663C15.8807 14.1663 13.753 16.3521 13.753 19.0487ZM22.3357 13.9727C22.3356 14.1983 22.4007 14.419 22.5226 14.6067C22.6446 14.7943 22.818 14.9407 23.0209 15.0271C23.2238 15.1135 23.4472 15.1362 23.6626 15.0923C23.8781 15.0484 24.076 14.9398 24.2314 14.7803C24.3868 14.6208 24.4927 14.4175 24.5356 14.1962C24.5786 13.9749 24.5566 13.7454 24.4727 13.5369C24.3887 13.3284 24.2464 13.1501 24.0638 13.0247C23.8812 12.8992 23.6665 12.8322 23.4468 12.8321H23.4464C23.1519 12.8322 22.8696 12.9524 22.6613 13.1663C22.4531 13.3801 22.336 13.6702 22.3357 13.9727V13.9727ZM14.7664 26.7884C13.864 26.7462 13.3735 26.5917 13.0476 26.4613C12.6155 26.2885 12.3071 26.0826 11.983 25.7501C11.6588 25.4175 11.4581 25.101 11.2907 24.6571C11.1636 24.3224 11.0133 23.8184 10.9723 22.8914C10.9274 21.8891 10.9184 21.588 10.9184 19.0488C10.9184 16.5096 10.9281 16.2094 10.9723 15.2063C11.0134 14.2792 11.1648 13.7762 11.2907 13.4405C11.4589 12.9966 11.6592 12.6798 11.983 12.3468C12.3067 12.0138 12.6147 11.8076 13.0476 11.6356C13.3734 11.505 13.864 11.3506 14.7664 11.3085C15.742 11.2624 16.035 11.2532 18.5056 11.2532C20.9762 11.2532 21.2695 11.2631 22.246 11.3085C23.1483 11.3507 23.638 11.5062 23.9648 11.6356C24.3969 11.8076 24.7052 12.0142 25.0294 12.3468C25.3535 12.6794 25.5535 12.9966 25.7217 13.4405C25.8487 13.7752 25.9991 14.2792 26.0401 15.2063C26.0849 16.2094 26.0939 16.5096 26.0939 19.0488C26.0939 21.588 26.0849 21.8883 26.0401 22.8914C25.999 23.8184 25.8479 24.3223 25.7217 24.6571C25.5535 25.101 25.3531 25.4178 25.0294 25.7501C24.7056 26.0823 24.3969 26.2885 23.9648 26.4613C23.639 26.5918 23.1483 26.7462 22.246 26.7884C21.2704 26.8345 20.9773 26.8437 18.5056 26.8437C16.0339 26.8437 15.7417 26.8345 14.7664 26.7884V26.7884ZM14.6897 9.59787C13.7044 9.64396 13.0311 9.80447 12.4432 10.0395C11.8342 10.2822 11.3187 10.6079 10.8036 11.1363C10.2885 11.6646 9.97229 12.195 9.73601 12.8206C9.50722 13.4251 9.35098 14.1164 9.30611 15.1286C9.2605 16.1424 9.25006 16.4665 9.25006 19.0487C9.25006 21.6309 9.2605 21.955 9.30611 22.9689C9.35098 23.9812 9.50722 24.6724 9.73601 25.2768C9.97229 25.902 10.2885 26.4331 10.8036 26.9612C11.3186 27.4893 11.8342 27.8145 12.4432 28.0579C13.0322 28.293 13.7044 28.4535 14.6897 28.4996C15.6771 28.5457 15.9921 28.5572 18.5056 28.5572C21.0191 28.5572 21.3346 28.5464 22.3215 28.4996C23.3069 28.4535 23.9797 28.293 24.5681 28.0579C25.1766 27.8145 25.6925 27.4896 26.2076 26.9612C26.7228 26.4328 27.0383 25.902 27.2752 25.2768C27.504 24.6724 27.661 23.9811 27.7051 22.9689C27.75 21.9543 27.7604 21.6309 27.7604 19.0487C27.7604 16.4665 27.75 16.1424 27.7051 15.1286C27.6602 14.1163 27.504 13.4247 27.2752 12.8206C27.0383 12.1954 26.7219 11.6655 26.2076 11.1363C25.6933 10.6071 25.1766 10.2822 24.5688 10.0395C23.9797 9.80447 23.3068 9.6432 22.3222 9.59787C21.3354 9.55177 21.0199 9.54028 18.5064 9.54028C15.9928 9.54028 15.6771 9.55101 14.6897 9.59787Z" fill="white"/>
<defs>
<linearGradient id="paint0_linear_2_394" x1="36.2889" y1="38" x2="-1.69763" y2="1.01315" gradientUnits="userSpaceOnUse">
<stop stop-color="#FBE18A"/>
<stop offset="0.21" stop-color="#FCBB45"/>
<stop offset="0.38" stop-color="#F75274"/>
<stop offset="0.52" stop-color="#D53692"/>
<stop offset="0.74" stop-color="#8F39CE"/>
<stop offset="1" stop-color="#5B4FE9"/>
</linearGradient>
</defs>
</svg>
