<svg width="38" height="38" viewBox="0 0 38 38" fill="none" xmlns="http://www.w3.org/2000/svg">
<rect width="38" height="38" rx="19" fill="#33CCFF"/>
<path d="M28.4312 12.984C27.8037 13.2542 27.1441 13.4424 26.4686 13.5439C26.7844 13.4897 27.2491 12.9208 27.4341 12.6905C27.7151 12.3431 27.9293 11.9465 28.0657 11.5209C28.0657 11.4893 28.0973 11.4441 28.0657 11.4216C28.0498 11.4129 28.032 11.4083 28.0138 11.4083C27.9957 11.4083 27.9779 11.4129 27.962 11.4216C27.2285 11.8191 26.4478 12.1226 25.6385 12.3247C25.6102 12.3333 25.5802 12.3341 25.5516 12.3269C25.523 12.3198 25.4969 12.3049 25.476 12.2841C25.413 12.209 25.3452 12.1381 25.273 12.0718C24.9429 11.7758 24.5684 11.5335 24.1631 11.3538C23.6161 11.1292 23.0253 11.0319 22.4352 11.0693C21.8626 11.1055 21.3036 11.2592 20.7929 11.5209C20.29 11.7968 19.8481 12.1716 19.4936 12.6227C19.1207 13.0871 18.8515 13.626 18.704 14.2032C18.5825 14.7523 18.5687 15.3197 18.6634 15.874C18.6634 15.9688 18.6634 15.9824 18.5822 15.9688C15.3654 15.4947 12.7261 14.3522 10.5695 11.9002C10.4748 11.7918 10.4251 11.7918 10.3484 11.9002C9.41 13.3272 9.86568 15.585 11.0387 16.7004C11.1966 16.8494 11.359 16.9939 11.5305 17.1294C10.9927 17.0912 10.468 16.9453 9.9875 16.7004C9.89726 16.6417 9.84763 16.6733 9.84312 16.7817C9.83033 16.9319 9.83033 17.083 9.84312 17.2332C9.93726 17.9533 10.2208 18.6354 10.6647 19.2098C11.1086 19.7843 11.697 20.2304 12.3697 20.5026C12.5336 20.5729 12.7045 20.6258 12.8795 20.6606C12.3816 20.7587 11.8709 20.774 11.3681 20.7058C11.2598 20.6832 11.2192 20.7419 11.2598 20.8458C11.923 22.652 13.3622 23.203 14.4179 23.51C14.5623 23.5326 14.7067 23.5326 14.8691 23.5687C14.8691 23.5687 14.8691 23.5687 14.842 23.5958C14.5307 24.1648 13.272 24.5486 12.6945 24.7473C11.6404 25.1263 10.5166 25.2711 9.40098 25.1718C9.22503 25.1447 9.18442 25.1492 9.1393 25.1718C9.09419 25.1944 9.1393 25.244 9.18893 25.2892C9.41452 25.4382 9.6401 25.5692 9.8747 25.6956C10.5731 26.0769 11.3115 26.3798 12.0764 26.5987C16.0376 27.6915 20.4952 26.8877 23.4683 23.93C25.8054 21.6089 26.6265 18.4073 26.6265 15.2012C26.6265 15.0793 26.7754 15.007 26.8611 14.9438C27.4524 14.4827 27.9736 13.9381 28.4086 13.3272C28.4839 13.2361 28.5226 13.1201 28.5169 13.002C28.5169 12.9343 28.5169 12.9479 28.4312 12.984Z" fill="white"/>
</svg>
